<svg xmlns="http://www.w3.org/2000/svg" xmlns:xlink="http://www.w3.org/1999/xlink" version="1.1" x="0px" y="0px" viewBox="0 0 64 80" enable-background="new 0 0 64 64" xml:space="preserve"><path d="M61,4.6362305H3c-0.5527344,0-1,0.4477539-1,1v7.0302734v45.6972656c0,0.5522461,0.4472656,1,1,1h58  c0.5527344,0,1-0.4477539,1-1V12.6665039V5.6362305C62,5.0839844,61.5527344,4.6362305,61,4.6362305z M4,6.6362305h56v5.0302734H4  V6.6362305z M60,57.3637695H4V13.6665039h56V57.3637695z"/><path d="M9.4892578,54.2324219h19.2851563c0.5527344,0,1-0.4477539,1-1V30.9013672c0-0.5522461-0.4472656-1-1-1H9.4892578  c-0.5527344,0-1,0.4477539-1,1v22.3310547C8.4892578,53.784668,8.9365234,54.2324219,9.4892578,54.2324219z M10.4892578,31.9013672  h17.2851563v20.3310547H10.4892578V31.9013672z"/><path d="M54.5107422,29.9013672H35.2255859c-0.5527344,0-1,0.4477539-1,1v22.3310547c0,0.5522461,0.4472656,1,1,1h19.2851563  c0.5527344,0,1-0.4477539,1-1V30.9013672C55.5107422,30.3491211,55.0634766,29.9013672,54.5107422,29.9013672z   M53.5107422,52.2324219H36.2255859V31.9013672h17.2851563V52.2324219z"/><path d="M9.4892578,27.1689453h45.0214844c0.5527344,0,1-0.4477539,1-1v-7.5209961c0-0.5522461-0.4472656-1-1-1H9.4892578  c-0.5527344,0-1,0.4477539-1,1v7.5209961C8.4892578,26.7211914,8.9365234,27.1689453,9.4892578,27.1689453z M10.4892578,19.6479492  h43.0214844v5.5209961H10.4892578V19.6479492z"/><text x="0" y="79" fill="#000000" font-size="5px" font-weight="bold" font-family="'Helvetica Neue', Helvetica, Arial-Unicode, Arial, Sans-serif">Created by Esih Sukaesih</text><text x="0" y="84" fill="#000000" font-size="5px" font-weight="bold" font-family="'Helvetica Neue', Helvetica, Arial-Unicode, Arial, Sans-serif">from the Noun Project</text></svg>