<svg width="176" height="70" viewBox="0 0 176 70" fill="none" xmlns="http://www.w3.org/2000/svg">
<path d="M84.8387 24.345C84.9587 24.345 85.0787 24.37 85.1987 24.42C85.3187 24.46 85.4337 24.535 85.5437 24.645L87.5537 26.76C86.6737 27.91 85.5687 28.78 84.2387 29.37C82.9187 29.95 81.3537 30.24 79.5437 30.24C77.8837 30.24 76.3937 29.96 75.0737 29.4C73.7637 28.83 72.6487 28.05 71.7287 27.06C70.8187 26.06 70.1187 24.88 69.6287 23.52C69.1387 22.15 68.8937 20.665 68.8937 19.065C68.8937 17.435 69.1587 15.94 69.6887 14.58C70.2187 13.21 70.9637 12.03 71.9237 11.04C72.8837 10.05 74.0337 9.28 75.3737 8.73C76.7137 8.18 78.1887 7.905 79.7987 7.905C80.6187 7.905 81.3887 7.98 82.1087 8.13C82.8387 8.27 83.5187 8.47 84.1487 8.73C84.7787 8.98 85.3587 9.285 85.8887 9.645C86.4187 10.005 86.8887 10.395 87.2987 10.815L85.5887 13.11C85.4787 13.25 85.3487 13.38 85.1987 13.5C85.0487 13.61 84.8387 13.665 84.5687 13.665C84.3887 13.665 84.2187 13.625 84.0587 13.545C83.8987 13.465 83.7287 13.37 83.5487 13.26C83.3687 13.14 83.1687 13.015 82.9487 12.885C82.7387 12.745 82.4837 12.62 82.1837 12.51C81.8937 12.39 81.5487 12.29 81.1487 12.21C80.7587 12.13 80.2987 12.09 79.7687 12.09C78.9287 12.09 78.1587 12.245 77.4587 12.555C76.7687 12.865 76.1687 13.32 75.6587 13.92C75.1587 14.51 74.7687 15.24 74.4887 16.11C74.2187 16.97 74.0837 17.955 74.0837 19.065C74.0837 20.185 74.2337 21.18 74.5337 22.05C74.8437 22.92 75.2587 23.655 75.7787 24.255C76.3087 24.845 76.9237 25.295 77.6237 25.605C78.3237 25.915 79.0737 26.07 79.8737 26.07C80.3337 26.07 80.7537 26.05 81.1337 26.01C81.5137 25.96 81.8687 25.885 82.1987 25.785C82.5287 25.675 82.8387 25.535 83.1287 25.365C83.4187 25.185 83.7137 24.96 84.0137 24.69C84.1337 24.59 84.2637 24.51 84.4037 24.45C84.5437 24.38 84.6887 24.345 84.8387 24.345ZM109.372 8.145L100.612 30L96.0219 30L87.2619 8.145L91.3419 8.145C91.7819 8.145 92.1369 8.25 92.4069 8.46C92.6769 8.66 92.8819 8.92 93.0219 9.24L97.2519 20.94C97.4519 21.45 97.6469 22.01 97.8369 22.62C98.0269 23.22 98.2069 23.85 98.3769 24.51C98.5169 23.85 98.6719 23.22 98.8419 22.62C99.0219 22.01 99.2119 21.45 99.4119 20.94L103.612 9.24C103.722 8.96 103.917 8.71 104.197 8.49C104.487 8.26 104.842 8.145 105.262 8.145L109.372 8.145ZM99.8837 44.145L93.1337 66L88.5437 66L84.4337 52.455C84.3537 52.245 84.2787 52.015 84.2087 51.765C84.1387 51.505 84.0687 51.235 83.9987 50.955C83.9287 51.235 83.8587 51.505 83.7887 51.765C83.7187 52.015 83.6437 52.245 83.5637 52.455L79.3937 66L74.8037 66L68.0537 44.145L72.3137 44.145C72.7537 44.145 73.1187 44.245 73.4087 44.445C73.7087 44.645 73.9037 44.91 73.9937 45.24L76.9937 56.64C77.0837 57 77.1737 57.395 77.2637 57.825C77.3537 58.245 77.4437 58.685 77.5337 59.145C77.7137 58.205 77.9337 57.37 78.1937 56.64L81.7337 45.24C81.8237 44.96 82.0137 44.71 82.3037 44.49C82.6037 44.26 82.9637 44.145 83.3837 44.145L84.8837 44.145C85.3237 44.145 85.6787 44.25 85.9487 44.46C86.2187 44.66 86.4237 44.92 86.5637 45.24L90.0737 56.64C90.3337 57.34 90.5537 58.135 90.7337 59.025C90.8137 58.575 90.8937 58.155 90.9737 57.765C91.0637 57.365 91.1537 56.99 91.2437 56.64L94.2437 45.24C94.3237 44.95 94.5137 44.695 94.8137 44.475C95.1137 44.255 95.4737 44.145 95.8937 44.145L99.8837 44.145ZM106.739 50.205C107.919 50.205 108.994 50.39 109.964 50.76C110.934 51.13 111.764 51.66 112.454 52.35C113.154 53.04 113.694 53.88 114.074 54.87C114.464 55.85 114.659 56.955 114.659 58.185C114.659 59.425 114.464 60.545 114.074 61.545C113.694 62.535 113.154 63.38 112.454 64.08C111.764 64.77 110.934 65.305 109.964 65.685C108.994 66.055 107.919 66.24 106.739 66.24C105.549 66.24 104.464 66.055 103.484 65.685C102.514 65.305 101.674 64.77 100.964 64.08C100.264 63.38 99.7187 62.535 99.3287 61.545C98.9487 60.545 98.7587 59.425 98.7587 58.185C98.7587 56.955 98.9487 55.85 99.3287 54.87C99.7187 53.88 100.264 53.04 100.964 52.35C101.674 51.66 102.514 51.13 103.484 50.76C104.464 50.39 105.549 50.205 106.739 50.205ZM106.739 62.79C107.809 62.79 108.594 62.415 109.094 61.665C109.604 60.905 109.859 59.755 109.859 58.215C109.859 56.675 109.604 55.53 109.094 54.78C108.594 54.03 107.809 53.655 106.739 53.655C105.639 53.655 104.834 54.03 104.324 54.78C103.814 55.53 103.559 56.675 103.559 58.215C103.559 59.755 103.814 60.905 104.324 61.665C104.834 62.415 105.639 62.79 106.739 62.79ZM121.35 52.845C121.83 52.005 122.38 51.345 123 50.865C123.63 50.385 124.35 50.145 125.16 50.145C125.86 50.145 126.43 50.31 126.87 50.64L126.57 54.06C126.52 54.28 126.435 54.43 126.315 54.51C126.205 54.59 126.05 54.63 125.85 54.63C125.77 54.63 125.665 54.625 125.535 54.615C125.405 54.605 125.27 54.595 125.13 54.585C124.99 54.565 124.845 54.55 124.695 54.54C124.555 54.52 124.425 54.51 124.305 54.51C123.625 54.51 123.08 54.69 122.67 55.05C122.27 55.41 121.93 55.91 121.65 56.55L121.65 66L117 66L117 50.445L119.76 50.445C119.99 50.445 120.18 50.465 120.33 50.505C120.49 50.545 120.62 50.61 120.72 50.7C120.83 50.78 120.91 50.89 120.96 51.03C121.02 51.17 121.07 51.34 121.11 51.54L121.35 52.845ZM133.105 43.545L133.105 66L128.455 66L128.455 43.545L133.105 43.545ZM145.683 54.615C145.333 54.225 144.953 53.955 144.543 53.805C144.133 53.645 143.703 53.565 143.253 53.565C142.823 53.565 142.428 53.65 142.068 53.82C141.708 53.99 141.393 54.265 141.123 54.645C140.863 55.015 140.658 55.5 140.508 56.1C140.358 56.7 140.283 57.425 140.283 58.275C140.283 59.095 140.343 59.785 140.463 60.345C140.583 60.905 140.748 61.36 140.958 61.71C141.178 62.05 141.438 62.295 141.738 62.445C142.038 62.595 142.373 62.67 142.743 62.67C143.083 62.67 143.388 62.64 143.658 62.58C143.938 62.51 144.193 62.415 144.423 62.295C144.653 62.175 144.868 62.025 145.068 61.845C145.278 61.655 145.483 61.44 145.683 61.2L145.683 54.615ZM150.333 43.545L150.333 66L147.453 66C146.873 66 146.493 65.74 146.313 65.22L145.953 64.035C145.643 64.365 145.318 64.665 144.978 64.935C144.638 65.205 144.268 65.44 143.868 65.64C143.478 65.83 143.053 65.975 142.593 66.075C142.143 66.185 141.653 66.24 141.123 66.24C140.313 66.24 139.563 66.06 138.873 65.7C138.183 65.34 137.588 64.82 137.088 64.14C136.588 63.46 136.193 62.63 135.903 61.65C135.623 60.66 135.483 59.535 135.483 58.275C135.483 57.115 135.643 56.04 135.963 55.05C136.283 54.05 136.733 53.19 137.313 52.47C137.903 51.74 138.608 51.17 139.428 50.76C140.248 50.35 141.153 50.145 142.143 50.145C142.953 50.145 143.633 50.26 144.183 50.49C144.733 50.72 145.233 51.03 145.683 51.42L145.683 43.545L150.333 43.545Z" fill="#FD8C3A"/>
<rect width="53.5539" height="58.4122" rx="7.30913" transform="matrix(0.970868 0.239616 -0.205329 0.978693 11.9937 0)" fill="#F4C9A6"/>
<path d="M13.1484 23.2258C13.063 19.19 16.265 15.8368 20.3005 15.7362L42.5378 15.1821C46.5732 15.0815 49.9139 18.2717 49.9994 22.3075L50.5365 47.6616C50.622 51.6975 47.4199 55.0507 43.3844 55.1512L21.1472 55.7054C17.1117 55.8059 13.771 52.6158 13.6855 48.5799L13.1484 23.2258Z" fill="#FD8C3A"/>
<path fill-rule="evenodd" clip-rule="evenodd" d="M21.2 28.7756C21.2 24.8952 24.1801 21.7495 27.8562 21.7495L33.1812 21.7495C33.5343 21.7495 33.8729 21.8976 34.1225 22.1611L42.11 30.5924C42.3597 30.8559 42.4999 31.2133 42.4999 31.586L42.4999 42.8277C42.4999 46.708 39.5198 49.8537 35.8437 49.8537L33.1812 49.8537C32.446 49.8537 31.8499 49.2246 31.8499 48.4485C31.8499 47.6724 32.446 47.0433 33.1812 47.0433L35.8437 47.0433C38.0494 47.0433 39.8374 45.1559 39.8374 42.8277L39.8374 32.9912L35.8437 32.9912C33.638 32.9912 31.8499 31.1038 31.8499 28.7756L31.8499 24.56L27.8562 24.56C25.6505 24.56 23.8625 26.4474 23.8625 28.7756L23.8625 35.8016C23.8625 36.5777 23.2664 37.2068 22.5312 37.2068C21.796 37.2068 21.2 36.5777 21.2 35.8016L21.2 28.7756ZM34.5124 26.5472L37.9548 30.1808L35.8437 30.1808C35.1085 30.1808 34.5124 29.5517 34.5124 28.7756L34.5124 26.5472ZM29.4327 35.2661C30.5312 34.1065 32.3124 34.1065 33.4109 35.2661L35.0198 36.9644C36.1183 38.124 36.1183 40.004 35.0198 41.1636L27.177 49.4421C26.9273 49.7057 26.5887 49.8537 26.2356 49.8537L22.5312 49.8537C21.796 49.8537 21.2 49.2246 21.2 48.4485L21.2 44.5383C21.2 44.1656 21.3402 43.8082 21.5899 43.5447L29.4327 35.2661ZM31.5282 37.2534C31.4695 37.1913 31.3741 37.1913 31.3154 37.2534L29.7506 38.9051L31.5723 40.8281L33.1371 39.1763C33.1959 39.1143 33.1959 39.0137 33.1371 38.9516L31.5282 37.2534ZM29.6896 42.8153L27.8679 40.8924L23.8625 45.1203L23.8625 47.0433L25.6842 47.0433L29.6896 42.8153Z" fill="white"/>
</svg>
